<svg width="40" height="40" viewBox="0 0 40 40" fill="none" xmlns="http://www.w3.org/2000/svg">
<path fill-rule="evenodd" clip-rule="evenodd" d="M1.6731 3.35614L7.35669 3.32684L8.74992 6.66669H33.33C33.92 6.66669 34.4688 6.97867 34.7688 7.487C35.0688 7.997 35.0767 8.62723 34.7883 9.1439L28.7825 19.9512C28.1958 21.0079 27.0807 21.6667 25.8691 21.6667H13.4211L11.4615 24.8047L11.5689 25H31.6666V28.3334H11.5689C10.3123 28.3334 9.15484 27.6511 8.54484 26.5528C7.93484 25.4544 7.96932 24.1071 8.63599 23.0404L10.6314 19.847L5.13989 6.6732L1.68937 6.68947L1.6731 3.35614ZM25.8691 18.3334L30.498 10H10.1366L13.6099 18.3334H25.8691ZM9.30956 30.9763C9.93468 30.3512 10.7825 30 11.6666 30C12.5506 30 13.3985 30.3512 14.0236 30.9763C14.6487 31.6015 14.9999 32.4493 14.9999 33.3334C14.9999 34.2174 14.6487 35.0653 14.0236 35.6904C13.3985 36.3155 12.5506 36.6667 11.6666 36.6667C10.7825 36.6667 9.93468 36.3155 9.30956 35.6904C8.68444 35.0653 8.33325 34.2174 8.33325 33.3334C8.33325 32.4493 8.68444 31.6015 9.30956 30.9763ZM25.9762 30.9763C26.6014 30.3512 27.4492 30 28.3333 30C29.2173 30 30.0652 30.3512 30.6903 30.9763C31.3154 31.6015 31.6666 32.4493 31.6666 33.3334C31.6666 34.2174 31.3154 35.0653 30.6903 35.6904C30.0652 36.3155 29.2173 36.6667 28.3333 36.6667C27.4492 36.6667 26.6014 36.3155 25.9762 35.6904C25.3511 35.0653 24.9999 34.2174 24.9999 33.3334C24.9999 32.4493 25.3511 31.6015 25.9762 30.9763Z" fill="white"/>
</svg>
